<svg
  width="256"
  height="256"
  viewBox="0 0 97.401 101.658"
  class="svg-logo bg"
  xmlns="http://www.w3.org/2000/svg">

  <style>
    .svg-logo.bg { background-color: #fcf8ed;}

    @media (prefers-color-scheme: dark) {
      .svg-logo.bg { background-color: #1d3131; }
      .wrench { fill: #fcf8ed }
    }
  </style>
  <path
    class="hand"
    style="fill:#eb4a2e;"
    d="M59.398 119.592H46.3l.067-28.37.067-28.37 7.082-1.587 7.082-1.587-3.711-.826c-2.041-.454-3.787-.9-3.878-.993-.092-.091.356-.392.995-.668s2.948-1.305 5.13-2.288a651.924 651.924 0 0 1 5.147-2.297l1.177-.51-.4.477a217.84 217.84 0 0 1-1.77 2.046l-1.369 1.57.418.462.418.462 1.922-2.164a213.737 213.737 0 0 0 3.88-4.527l1.959-2.363-2.406-4.78-2.405-4.782.18-1.722c.098-.947.417-2.256.708-2.91l.53-1.189 1.27-1.166 1.27-1.166.38.504c.208.278.741 1.22 1.184 2.093.443.873.91 1.627 1.037 1.675.128.049.232.176.232.282 0 .106.79 1.674 1.755 3.484a478.94 478.94 0 0 1 3.822 7.374c1.136 2.246 2.024 4.15 1.973 4.233-.052.082-1.772 2.23-3.822 4.77l-3.728 4.622v60.211zm-7.419-66.146h-1.22l-.739-.74-.74-.739-.69-2.237c-.38-1.23-1.482-4.832-2.45-8.003-.966-3.17-1.712-5.806-1.657-5.856.054-.05 1.332-.708 2.839-1.461 1.507-.753 2.77-1.333 2.808-1.287.038.045.825 2.523 1.75 5.506.924 2.983 1.773 5.464 1.888 5.512.114.049.207.244.207.435 0 .19.47 1.87 1.044 3.73.574 1.862.983 3.484.907 3.606-.075.121-.72.516-1.432.877l-1.295.657zm-8.176-1.863c-.445-.006-1.165-.215-1.602-.463-.437-.249-.808-.63-.825-.85-.018-.217-.77-2.76-1.67-5.65-.901-2.889-1.587-5.304-1.523-5.368.063-.063 1.202-.693 2.531-1.4 1.329-.706 2.455-1.207 2.502-1.113.047.094.844 2.633 1.772 5.643s1.756 5.43 1.84 5.377c.085-.052.165.104.179.348.013.244.11.815.215 1.267l.19.824-1.4.698c-.771.384-1.765.693-2.21.687zm15.815.003-1.104.008-.814-.684-.813-.685-1.031-3.35c-.568-1.843-1.805-5.851-2.75-8.907l-1.717-5.556 2.782-1.409 2.782-1.408.198.218c.109.12.945 2.624 1.858 5.566.913 2.942 1.736 5.302 1.828 5.245.093-.057.172.096.177.34.004.244.58 2.281 1.28 4.527l1.274 4.084-.256.405c-.14.222-.78.673-1.422 1.002l-1.168.597zm4.5-4.49c-.143 0-.717-1.488-1.274-3.307-.558-1.82-1.144-3.31-1.303-3.312l-.29-.004.287-.194.288-.195-1.683-5.415c-.925-2.978-1.63-5.553-1.565-5.72.064-.17 1.42-.974 3.013-1.788l2.897-1.482.87 3.048.87 3.047-.561 1.124c-.309.617-.699 1.764-.867 2.547l-.305 1.424.312 1.395c.171.767.84 2.48 1.487 3.808l1.174 2.414-.256.478c-.14.263-.836.85-1.544 1.305-.709.455-1.406.827-1.55.827z"
    transform="translate(-6.909 -17.934)"
  />
  <path
    class="wrench"
    style="fill:#1d3131;"
    d="M6.918 71.69c-.094-.007.543-.337 1.416-.735.873-.397 7.508-3.338 14.744-6.536 7.237-3.198 13.16-5.892 13.163-5.988.004-.095-1.481-.443-3.3-.773-1.82-.33-3.305-.668-3.302-.752.003-.084 2.654-1.51 5.891-3.168l5.886-3.016.842.436c.464.24 1.183.436 1.598.436.415 0 1.373-.309 2.13-.685.756-.377 1.374-.846 1.374-1.041 0-.196-.126-.688-.28-1.093l-.28-.737.467-.342.468-.342.85 2.446.85 2.447.698.6.697.599h2.369l1.295-.657c.713-.36 1.357-.756 1.432-.877.076-.122-.333-1.744-.907-3.606-.574-1.86-1.044-3.537-1.044-3.724 0-.187.196-.415.435-.507.239-.092.456-.134.482-.094.027.04.488 1.462 1.025 3.161l.977 3.089.81.681.81.682 1.104-.008 1.104-.007 1.168-.598c.642-.328 1.283-.78 1.424-1.003l.256-.407-1.344-4.327c-.74-2.38-1.285-4.425-1.21-4.545.073-.12.287-.218.474-.218h.34l1.014 3.307c.557 1.82 1.13 3.308 1.275 3.308.143 0 .84-.372 1.549-.827.708-.455 1.406-1.047 1.55-1.317l.263-.49-.963-1.914c-.53-1.053-1.12-2.356-1.31-2.895l-.347-.982.439-.168.439-.169.109.346c.06.19 1.14 2.384 2.401 4.876l2.293 4.529-1.206 1.367-1.206 1.367-1.455.676c-.8.371-3.717 1.692-6.482 2.935a845.46 845.46 0 0 1-6.19 2.76c-.638.277-1.086.577-.994.67.091.091 1.835.538 3.875.991l3.709.826-7.476 1.673c-4.112.92-16.15 3.626-26.752 6.013-10.602 2.386-19.353 4.334-19.447 4.327ZM81.06 45.056l-2.668 1.183-2.882-5.453c-1.585-2.998-2.914-5.574-2.953-5.722-.039-.15 1.211-.926 2.778-1.727l2.85-1.455.168-1.89c.093-1.041.316-2.35.495-2.911.18-.56.683-1.7 1.12-2.53l.793-1.511 1.546-1.475 1.546-1.475 1.673-.783c.92-.43 2.384-.916 3.251-1.078l1.578-.295 1.643.15 1.643.15 1.065.544c.586.299 1.266.85 1.511 1.224l.446.68-.376.243c-.206.134-2.323 1.451-4.703 2.927l-4.328 2.685.17 2.276c.093 1.251.236 2.87.317 3.598l.148 1.323 3.023 1.802 3.024 1.8 4.688-2.909 4.687-2.909.499.787.498.787-.116 1.395-.116 1.395-.805 1.704c-.443.938-1.324 2.288-1.959 3.002-.634.713-1.766 1.689-2.514 2.168-.749.479-2.121 1.128-3.05 1.443l-1.69.573-2.646-.12-2.646-.12-1.774-.716-1.773-.715-.747.386c-.41.212-1.947.918-3.414 1.569z"
    transform="translate(-6.909 -17.934)"
  />
</svg>
